<?xml version="1.0" encoding="UTF-8" standalone="no"?>
<!DOCTYPE svg PUBLIC "-//W3C//DTD SVG 1.1//EN" "http://www.w3.org/Graphics/SVG/1.1/DTD/svg11.dtd">
<svg width="100%" height="100%" viewBox="0 0 208 212" version="1.1" xmlns="http://www.w3.org/2000/svg" xmlns:xlink="http://www.w3.org/1999/xlink" xml:space="preserve" xmlns:serif="http://www.serif.com/" style="fill-rule:evenodd;clip-rule:evenodd;stroke-miterlimit:10;">
    <g transform="matrix(4.16667,0,0,4.16667,173.424,149.224)">
        <path d="M0,-20.938C0,-20.938 -6.348,-27.991 -6.536,-27.878C-11.651,-24.774 -16.666,-27.761 -16.666,-27.761C-16.666,-27.761 -21.565,-24.916 -26.911,-27.761C-31.047,-23.551 -33.442,-21.048 -33.442,-21.048C-33.442,-21.048 -30.294,-15.319 -33.005,-8.765C-34.481,-3.852 -34.26,2.068 -25.109,4.09C-18.312,4.614 -16.666,7.053 -16.666,7.053C-16.666,7.053 -14.869,4.55 -8.659,4.15C0.422,1.742 0.763,-4.835 -0.179,-8.386C-3.259,-15.761 0,-20.938 0,-20.938Z" style="fill:white;fill-rule:nonzero;stroke:rgb(35,31,32);stroke-width:1.58px;"/>
    </g>
</svg>
