<?xml version="1.0" encoding="UTF-8" standalone="no"?>
<!DOCTYPE svg PUBLIC "-//W3C//DTD SVG 1.1//EN" "http://www.w3.org/Graphics/SVG/1.1/DTD/svg11.dtd">
<svg width="100%" height="100%" viewBox="0 0 215 148" version="1.1" xmlns="http://www.w3.org/2000/svg" xmlns:xlink="http://www.w3.org/1999/xlink" xml:space="preserve" xmlns:serif="http://www.serif.com/" style="fill-rule:evenodd;clip-rule:evenodd;stroke-miterlimit:10;">
    <g transform="matrix(4.16667,0,0,4.16667,188.897,73.5099)">
        <path d="M0,0.003C0,6.364 -4.626,11.525 -10.337,11.525L-28.878,11.525C-34.584,11.525 -39.215,6.364 -39.215,0.003C-39.215,-6.36 -34.584,-11.522 -28.878,-11.522L-10.337,-11.522C-4.626,-11.522 0,-6.36 0,0.003" style="fill:white;fill-rule:nonzero;"/>
    </g>
    <g transform="matrix(4.16667,0,0,4.16667,188.897,73.5099)">
        <path d="M0,0.003C0,6.364 -4.626,11.525 -10.337,11.525L-28.878,11.525C-34.584,11.525 -39.215,6.364 -39.215,0.003C-39.215,-6.36 -34.584,-11.522 -28.878,-11.522L-10.337,-11.522C-4.626,-11.522 0,-6.36 0,0.003Z" style="fill:none;stroke:rgb(3,4,5);stroke-width:1.22px;"/>
    </g>
</svg>
